<svg xmlns="http://www.w3.org/2000/svg" width="36" height="36" viewBox="0 0 36 36">
  <path id="ClubsWhite" d="M30.8,14.6c-2.056,0-5.35,2.4-8.057,4.73C24.779,15.977,27.2,11.508,27.2,9.2a7.2,7.2,0,0,0-14.4,0c0,2.308,2.421,6.777,4.457,10.13C14.55,17,11.256,14.6,9.2,14.6A7.2,7.2,0,0,0,9.2,29c2.1,0,5.47-1.5,8.2-2.914,1.5-.517.8,1.114.8,1.114l-4.1,8.2A1.8,1.8,0,0,0,15.712,38h8.575A1.8,1.8,0,0,0,25.9,35.4l-4.1-8.2s-.59-1.66.8-1.114C25.33,27.5,28.7,29,30.8,29a7.2,7.2,0,1,0,0-14.4Z" transform="translate(-2 -2)" fill="#fff"/>
</svg>
