<?xml version="1.0"?>
<svg xmlns="http://www.w3.org/2000/svg" viewBox="0 0 24 24" >
    <path  d="M18,9c-1.142,0-2.972,1.336-4.476,2.628C14.655,9.765,16,7.282,16,6c0-2.209-1.791-4-4-4S8,3.791,8,6 c0,1.282,1.345,3.765,2.476,5.628C8.972,10.336,7.142,9,6,9c-2.209,0-4,1.791-4,4c0,2.209,1.791,4,4,4 c1.164,0,3.039-0.832,4.558-1.619C11.391,15.094,11,16,11,16l-2.276,4.553C8.391,21.218,8.875,22,9.618,22h4.764 c0.743,0,1.227-0.782,0.894-1.447L13,16c0,0-0.328-0.922,0.442-0.619C14.961,16.168,16.836,17,18,17c2.209,0,4-1.791,4-4 C22,10.791,20.209,9,18,9z" fill="#4D4F5C" />
</svg>
