<svg id="icon_search" xmlns="http://www.w3.org/2000/svg" width="27" height="27" viewBox="0 0 27 27">
  <path id="icon_search-2" data-name="icon_search" d="M21.431,18.95a11.436,11.436,0,0,0,2.362-7.043A11.846,11.846,0,0,0,11.981,0,11.99,11.99,0,0,0,0,11.907,11.99,11.99,0,0,0,11.981,23.814a11.25,11.25,0,0,0,7.087-2.348L24.131,26.5a1.638,1.638,0,0,0,2.362,0,1.614,1.614,0,0,0,0-2.348Zm-9.45,1.342a8.474,8.474,0,0,1-8.606-8.385,8.606,8.606,0,0,1,17.212,0A8.474,8.474,0,0,1,11.981,20.292Z" fill="#333"/>
</svg>
